<svg viewBox="0 0 600 133" xmlns="http://www.w3.org/2000/svg" width="600" height="133"><path d="M4 42.135l33.589-5.688 19.675-33.447 20.577 31.913h69.254l-52.606 37.478 8.374 43.065-46.543-28.825.174-9.245 31.006 18.635-7.688-29.801 33.953-23.12-42.6-1.09-14.755-21.366-12.236 22.225-24.285 4.845 17.839 16.428-4.885 22.312 23.769-9.198.032 9.284-35.445 12.23 6.614-32.4-23.814-24.234zm394.279 18.09c10.36-.234 17.77 3.406 20.892 10.475 2.799 6.282 2.382 14.636 2.382 23.454v25.822c-.259.331-.036 1.146-.106 1.669-.045 1.869-1.103 2.709-2.872 2.86h-9.665c-1.15-.072-2.714.033-3.585-.838-1.22-1.225-.838-5.172-.838-7.732v-25.599c-.073-.479.167-1.27-.113-1.538.106-6.653-1.224-11.69-5.384-13.936-6.443-3.488-15.044.106-17.423 5.357-1.652 3.661-1.406 8.277-1.675 13.572-.281 8.959-.043 18.459-.111 27.616-.16 2.388-1.906 3.179-4.536 3.097h-7.888c-4.382.642-5.031-2.459-4.665-6.547.282-17.3.049-35.111.126-52.613-.345-5.259 6.781-3.078 11.222-3.573.211.274.915.04 1.324.125 1.382.175 1.881.092 2.499.592 1.493 1.2.63 4.876 2.389 5.234 1.031.213 2.13-.982 2.871-1.671 3.335-3.087 7.68-5.11 13.382-5.71.538-.066 1.41.163 1.774-.116zm33.197 27.505c1.118-8.418 4.688-15.031 10.034-19.65 1.631-1.419 3.289-3.002 5.001-3.928 2.806-1.498 6.369-2.513 9.909-3.21 12.356-2.424 23.83 1.584 30.34 7.614.346.448.742.847 1.194 1.194 1.39 2.044 3.655 4.56 4.891 7.141 2.03 4.26 2.87 9.288 3.453 14.876v1.795c.099.51-.205.659-.12 1.184-.271.205-.036.912-.11 1.303-.607 9.804-4.139 17.318-9.917 22.142-5.695 4.758-13.483 8.379-23.987 7.854-.287-.278-1.092-.045-1.569-.122-8.447-.606-14.645-3.475-19.445-7.732-.592-.684-1.225-1.315-1.918-1.9-5.521-5.94-8.851-15.633-7.883-26.905.277-.319.04-1.14.127-1.655zm47.524 2.726c-.869-9.24-4.477-16.341-13.257-17.368-2.64-.319-5.554.114-7.517.828-6.76 2.431-9.702 9.7-9.914 18.68-.212.406-.212 1.624 0 2.027.718 10.742 4.46 18.484 15.637 18.81.401-.08 1.118.153 1.317-.117 8.748-1.119 12.626-7.097 13.609-15.955.277-.316.046-1.145.126-1.669-.014-.596.197-.982.112-1.661.188-.283.188-1.385 0-1.671v-.711c-.08-.357.152-1.024-.112-1.192zm43.212 33.808c-.512-.07-2.172-.319-2.747-.833-1.028-.919-2.082-5.115-2.746-7.264-3.891-12.563-7.883-25.002-11.947-37.728-1.089-3.439-2.497-7.297-3.693-11.185-.439-1.413-.914-3.092-.597-4.047 1.041-3.103 9.368-.857 12.532-1.555.331.271 1.156.038 1.668.12 4.121-.057 4.387 6.203 5.503 9.761.954 3.071 1.794 6.773 2.624 10.002 1.265 4.904 2.637 9.762 4.176 14.879.487 1.606.866 4.136 2.273 4.045 1.233-.08 1.811-2.707 2.158-4.172 1.927-8.349 4.094-16.437 6.197-24.872.704-2.814 1.222-7.989 3.224-9.169.519-.299 1.171-.399 1.91-.474.482-.082 1.273.151 1.558-.12h7.514c.253.271.997.038 1.435.12 5-.463 4.799 6.583 5.968 10.236 2.526 7.906 3.827 16.157 6.212 24.279.402 1.397.923 3.934 2.028 4.051 1.32.145 2.084-2.45 2.503-3.813 2.581-8.276 4.126-16.405 6.693-24.746.411-1.379 1.004-3.106 1.436-4.894.716-3.089 1.1-5.133 4.653-5.114.361-.075 1.031.151 1.2-.12 2.819.594 10.558-1.244 11.804 1.192.942 1.81-1.01 5.926-1.66 7.973-4.839 15.302-9.803 30.155-14.44 45.592-1.17 3.838-1.447 7.745-5.382 7.965h-3.097c-1.328-.193-3.474-.193-4.776 0-2.137-.042-4.579.194-5.975-.585-2.242-1.275-2.51-6.136-3.349-9.168-.861-3.192-1.97-6.618-2.741-9.763-1.237-5.081-2.585-9.572-3.93-14.877-.409-1.52-1.259-3.87-2.286-3.936-1.202-.054-1.811 2.667-2.264 4.054-.559 1.758-.838 3.507-1.189 5.001-.762 3.283-2.03 6.619-2.75 9.759-.764 3.372-1.507 7.045-2.385 10.125-1.138 3.92-.891 10.01-6.334 9.279h-10.977z" fill="#92d400" class="now"/><path d="M200.548 50.898c1.764-1.173 5.264-3.78 7.524-5.355.764-.541 1.833-1.51 2.51-1.669 1.521-.363 4.026.079 4.769.958.306.351.52 1.027.601 1.777v8.215c.021.89-.143 1.242 0 2.025.077.833-.157 1.978.126 2.615-.175 3.295 3.517 2.752 6.318 3.096.442.274 1.389.042 2.034.125 4.311-.29 8.271-.243 7.529 4.525.068.781-.167 1.9.112 2.492.362 3.62-1.936 4.579-5.489 4.288h-2.028c-2.454.418-5.353-.436-7.051.47-1.569.846-1.662 2.78-1.425 5.126-.206 7.97-.206 16.788 0 24.751-.237 4.756 1.204 7.842 5.483 8.093.201.272.905.048 1.316.125 3.484.25 8.56-1.076 8.591 2.607v5.718c1.183 6.101-5.588 4.802-10.625 4.997-10.977.441-19.716-1.933-21.597-10.588-.087-.403.136-1.106-.13-1.303-.08-.897-.315-1.682-.231-2.742v-1.429c0-16.046-.01-33.333 0-49.989 0-2.825-.293-5.749.467-7.735.448-.353.849-.748 1.198-1.192zm-43.458 9.993h3.701c8.426.179 15.259 1.935 19.937 5.839.515.6 1.064 1.155 1.679 1.666 1.252 1.496 2.371 3.21 3.46 5.707 1.071 2.467 2.205 6.335-1.316 6.54-2.584.085-5.481-.151-7.876.128-1.079.167-2.954-.088-3.811-.482-2.117-.941-2.225-3.145-3.706-4.876-3.38-3.926-13.665-4.165-17.317-1.311-2.238 1.74-2.75 6.043-.117 7.984 5.659 3.943 14.104 4.428 21.481 6.539 8.149 2.335 15.311 5.854 16.009 15.711v2.145c-.438 6.038-2.875 11.204-6.927 14.281-7.05 5.339-20.779 7.71-31.997 4.998-2.78-.667-5.394-1.646-7.765-2.735-4.981-2.27-8.431-6.073-10.146-10.948-.843-2.368-2.181-7.149 1.666-7.025h10.036c3.685.073 3.735 3.996 5.366 6.069 2.604 3.303 9.314 5.375 15.641 3.937 1.993-.459 4.808-1.995 5.848-3.813.51-.869 1.175-2.59 1.07-4.047-.054-1.03-.936-2.453-1.534-3.222-2.71-3.369-10.793-5.058-16.244-5.938-2.767-.461-5.813-1.54-8.71-2.391-5.677-1.649-10.099-4.144-12.069-9.402-.592-1.593-1.058-3.607-1.071-5.473-.016-1.128.231-2.842.479-4.047 2.184-10.749 10.802-14.693 23.031-15.714.373-.077 1.031.16 1.201-.12zm113.9 11.541c-4.568.069-7.886 1.359-9.668 3.935-1.027 1.481-1.243 4.005-2.625 4.88-1.58 1.007-5.194.595-8.114.595-2.9 0-6.435.568-7.404-1.314-.84-1.606.438-4.454 1.072-5.952 3.867-9.176 13.777-13.129 26.143-13.566h3.107c13.655.423 24.596 3.574 25.905 16.302.081.451-.146 1.185.112 1.439v3.208c.082 11.347-.151 23.011.134 34.171-.122 3.181 2.841 8.684-1.444 9.162h-10.74c-3.251.768-3.432-3.838-5.606-4.049-1.377-.128-4.178 2.169-5.972 2.974-4.204 1.871-9.316 2.927-15.053 2.613-6.936-.386-12.494-2.19-15.982-6.07-2.647-2.932-4.567-7.541-4.432-13.092.118-4.668 1.745-8.324 4.061-11.194.573-.459 1.083-.972 1.555-1.539 4.126-3.764 11.352-4.847 18.503-5.946 4.682-.729 9.876-.806 13.733-2.501 3.142-1.384 5.201-4.951 3.466-9.176-1.302-3.151-4.748-4.931-9.2-4.881-.25-.187-1.308-.187-1.552 0zm-2.023 43.215c7.042-.285 11.143-3.218 12.775-8.925.557-1.966.937-4.871.707-7.145-.082-.993-.209-2.418-.832-2.977-.892-.808-2.679-.201-4.299.125-7.655 1.543-16.274 1.39-18.991 7.136-1.608 3.44-.299 7.967 2.045 9.765 1.833 1.42 3.934 1.739 7.276 2.021.163.186 1.149.186 1.32 0zm44.294-50.354c.296-3.198 4.717-2.735 8.473-2.735 2.332 0 5.95-.083 6.92.951 1.082 1.162.24 6.322 2.029 6.91 1.012.32 2.061-1.089 2.99-2.144 2.019-2.313 4.452-4.069 7.287-5.355 2.377-1.083 5.361-1.88 8.595-1.909.928-.01 2.367.31 2.987.833 2.148 1.832.79 7.038 1.198 10.242v1.903c.132 3.775-3.899 2.688-7.053 2.736-1.545.025-3.321.379-4.654.716-4.719 1.18-8.137 4.716-9.908 8.804-1.333 3.105-1.58 6.903-1.796 11.668-.2.124-.2 1.072 0 1.19.267 6.772.055 13.986.125 20.944-.28.208-.042.902-.125 1.312.118 2.728-1.218 4.029-3.941 3.934h-8.476c-.484-.284-1.472-.047-2.152-.132-1.656-.321-2.573-1.394-2.499-3.444v-56.423z" fill="#666" class="star"/></svg>